<svg version="1" xmlns="http://www.w3.org/2000/svg" width="682.667" height="682.667" viewBox="0 0 512.000000 512.000000"><path d="M245.9 55.4c-.2.2-3.8.7-7.9 1-8.3.8-11 1.1-17.2 2.1-2.4.4-5.4.8-6.8 1.1-5.9.9-22.1 4.4-29.5 6.4-85.3 22.9-150.3 77.5-175 147-2.8 7.9-7.1 25.2-8.1 32.3-1 7.5-1.2 35.1-.3 40.7.5 3 1.1 7.3 1.4 9.5 1.8 12.5 9.6 34.5 16.9 47.3 2 3.5 3.6 6.6 3.6 6.8 0 .2 2.1 3.4 4.7 7.2 19.8 28.7 46 51.4 79.4 68.9 27.3 14.2 64.2 25.7 93.4 28.9 2.8.3 6.4.7 8 1 5.3.9 52.8 1.2 60.5.4 9.3-1 17.6-2 20.4-2.6 1.1-.2 3.8-.6 6.1-.9 9.9-1.5 31.3-7 46-11.9C422.6 413.2 484.6 357 504.4 293c2-6.3 3.8-13.1 4.2-15 2.8-16.6 3.2-21 2.9-36-.2-18.2-2.2-30.3-7.6-46.5-12.6-37.8-40.4-72.5-77.9-97.1-27.3-17.9-62-31.7-95.8-38-3-.6-21.1-3.4-25.2-4-4.7-.6-58.5-1.5-59.1-1zm31.6 12c11.2.5 21.5 1.7 35.5 4.1 8.7 1.5 26.4 6.1 35.5 9.2 53.8 18.6 94 51.8 115 94.8 23.8 48.7 19.2 102.8-12.8 150.4-5.7 8.5-6 8.9-14.8 19-31.5 36.3-78.7 64.5-131.9 79-4.1 1.1-8.8 2.3-10.5 2.6-27.5 5.3-40 6.6-63.5 6.7-14.2 0-22.6-.5-32-1.7-1.9-.3-5.5-.7-8-1-31.4-3.8-71.8-18.4-98-35.3C75.6 384.5 58.8 370 49.1 358c-2-2.5-4.2-5.1-4.9-5.9-6.1-6.4-17.5-26.9-22.6-40.4-9.5-25.4-11.8-56-6-79.7.4-1.4.8-3.4.9-4.5.7-5 7.2-23 11.9-33 18.8-39.7 54.5-74.5 99.5-97.1 14.7-7.3 29.9-13.5 41.8-16.9 4.7-1.4 8.8-2.7 9.2-2.9.4-.3 1.8-.7 3.2-1 1.3-.3 7.6-1.6 13.9-3 6.3-1.3 13.3-2.7 15.5-3.1 13.7-2.1 18.5-2.5 31.5-3.1 8-.4 14.6-.8 14.8-.9.2-.2 1.7-.1 3.5.1 1.8.1 9.1.5 16.2.8z"/><path d="M235.9 80.4c-.2.2-3.6.6-7.5.9-22.1 1.8-49.4 8.4-72.4 17.4-30.7 12.1-55.9 28.3-77 49.3-26.6 26.5-41.7 54.7-47.5 88.5-.9 5.2-1.2 13.5-1 24 .3 13.9.7 17.5 3.4 27.9 1.6 6.6 3.4 12.3 3.9 12.8s.3-1.4-.4-4.2c-4.4-16.9-3.7-40.9 1.7-63 4.5-18.1 17.2-44.2 28.2-57.6.9-1.1 3.2-3.9 5.2-6.4 8.8-10.7 24.3-25.6 33.5-32 1.9-1.3 3.7-2.7 4-3 .3-.3 4.4-3.2 9.1-6.3 11.3-7.5 30.7-17.4 44.9-23.1 10-3.9 31.6-10.7 38.3-12 1.2-.2 5.6-1.1 9.7-2 18-3.6 33.5-5 56-5 18.4 0 28.9.8 41.5 2.9 1.7.3 4.6.8 6.5 1.1 6.5 1 28.5 6.6 33.4 8.5 2.8 1 5.2 1.7 5.4 1.5.4-.5-14-6.1-23.5-9.2-10-3.2-26.4-7.1-35.3-8.3-4.1-.6-9.3-1.4-11.5-1.7-4.5-.7-48-1.6-48.6-1zM448.6 223.6c.2 22.3-4.3 40.8-15.7 63.6-20.2 40.7-61.7 77.1-111.9 98.1-13.5 5.7-33 12-44 14.2-.8.2-2.6.6-4 .9-1.4.3-3.6.8-5 1-1.4.3-5 .9-8 1.5-21 3.9-64 4.8-81.2 1.6-1.6-.3-4-.7-5.5-.9-9.6-1.4-12.7-2-16.5-3-1.5-.5-3.3-.6-4-.4-2.3.8 23.7 7.1 38.2 9.2 14 2.1 48.3 2.8 62 1.4 14.5-1.6 19.8-2.4 29.5-4.4 14.3-3 41.5-11.3 44-13.6.5-.4 1.5-.8 2.2-.8.7 0 6.1-2.3 12-5.2 44-21.3 77.6-52.5 96.2-89.3 4.7-9.5 10.4-24.9 11.7-31.9.3-1.7 1.2-6.5 1.9-10.6 2.2-11.9 1.1-45-1.4-45-.3 0-.5 6.1-.5 13.6zM146.5 399c1.1.5 2.7.9 3.5.9.9 0 .8-.4-.5-.9-1.1-.5-2.7-.9-3.5-.9-.9 0-.8.4.5.9z"/></svg>